<?xml version="1.0" standalone="no"?>
<!DOCTYPE svg PUBLIC "-//W3C//DTD SVG 20010904//EN"
 "http://www.w3.org/TR/2001/REC-SVG-20010904/DTD/svg10.dtd">
<svg version="1.0" xmlns="http://www.w3.org/2000/svg"
 width="211.000000pt" height="111.000000pt" viewBox="0 0 211.000000 111.000000"
 preserveAspectRatio="xMidYMid meet">

<g transform="translate(0.000000,111.000000) scale(0.100000,-0.100000)"
fill="#000000" stroke="none">
<path d="M0 555 l0 -555 1055 0 1055 0 0 555 0 555 -1055 0 -1055 0 0 -555z
m1030 490 l34 -35 33 32 c22 21 36 29 43 22 7 -7 0 -20 -20 -39 -16 -16 -30
-35 -30 -43 0 -20 415 -431 553 -548 65 -54 173 -140 240 -191 114 -86 123
-90 140 -75 14 12 22 14 35 5 13 -8 16 -22 13 -64 -4 -67 -5 -69 -41 -69 -33
0 -52 25 -44 57 4 16 -15 35 -103 99 -188 139 -351 282 -578 506 -121 120
-222 218 -224 218 -9 0 13 -79 34 -120 67 -133 297 -369 615 -634 l115 -96 63
0 c55 0 62 -2 62 -20 0 -20 -5 -20 -912 -18 -804 3 -913 5 -913 18 0 12 15 16
67 18 63 3 68 5 99 40 49 57 156 148 246 208 45 31 89 66 97 79 24 37 20 88
-9 119 -29 31 -53 33 -88 6 -34 -27 -37 -26 -37 16 0 60 26 98 96 144 73 47
123 64 163 55 24 -5 38 6 139 114 62 65 112 123 112 127 0 4 -11 22 -25 40
-24 32 -33 64 -17 64 4 0 23 -16 42 -35z m-501 -615 c-78 -67 -265 -215 -330
-262 -63 -44 -75 -57 -68 -71 17 -29 -7 -59 -44 -55 -31 3 -32 5 -39 58 -8 69
7 92 46 71 23 -13 30 -10 93 35 85 60 304 236 322 258 13 15 16 15 29 2 14
-13 13 -17 -9 -36z"/>
<path d="M940 830 c-69 -75 -100 -115 -91 -118 8 -2 31 -20 51 -38 l37 -34 21
23 c41 44 97 198 90 252 -3 27 -8 22 -108 -85z"/>
<path d="M1084 692 c3 -48 15 -110 29 -150 45 -129 162 -284 304 -402 l84 -70
142 0 c80 0 137 4 132 9 -6 4 -75 64 -155 131 -80 68 -206 184 -280 259 -118
119 -158 164 -243 281 -18 25 -18 24 -13 -58z"/>
<path d="M1021 712 c-14 -29 -33 -60 -43 -69 -14 -12 -17 -25 -13 -45 9 -40
-4 -35 -52 21 -44 51 -112 91 -154 91 -14 0 -45 -10 -69 -22 -38 -20 -45 -28
-45 -53 0 -36 -19 -50 -23 -17 -3 16 -8 22 -19 18 -8 -3 -16 -6 -19 -6 -5 0
-34 -57 -34 -69 0 -7 8 -7 23 -2 65 24 139 7 184 -41 25 -27 62 -105 63 -131
0 -34 -22 -12 -42 40 -18 48 -75 113 -99 113 -5 0 -3 -13 6 -30 39 -76 7 -139
-113 -218 -47 -31 -124 -93 -171 -139 l-86 -82 151 -1 c171 0 149 -8 277 103
149 131 273 325 297 465 6 39 10 83 8 98 -3 26 -5 24 -27 -24z m-219 -75 c12
-18 10 -25 -12 -47 -25 -25 -51 -25 -80 -2 -44 35 4 91 60 70 13 -5 28 -15 32
-21z"/>
<path d="M731 631 c-17 -11 -6 -31 18 -31 25 0 33 11 20 27 -13 15 -19 16 -38
4z"/>
<path d="M960 363 c-24 -38 -94 -119 -157 -180 l-113 -113 53 0 c52 0 56 2
104 53 58 62 102 136 137 235 14 39 24 72 23 72 -2 0 -22 -30 -47 -67z"/>
<path d="M1121 419 c-1 -3 8 -31 19 -63 29 -86 76 -168 132 -230 49 -56 50
-56 106 -56 l57 0 -87 81 c-74 67 -167 179 -215 255 -6 10 -12 16 -12 13z"/>
<path d="M1020 348 c-32 -89 -61 -144 -114 -215 l-46 -63 95 0 95 0 0 170 c0
94 -2 170 -4 170 -2 0 -14 -28 -26 -62z"/>
<path d="M1082 228 l3 -153 88 -3 c48 -1 87 0 87 3 0 4 -18 27 -39 53 -38 45
-121 202 -121 228 0 7 -5 16 -10 19 -7 4 -10 -44 -8 -147z"/>
</g>
</svg>
